<svg width="64" height="64" viewBox="0 0 64 64" fill="none" xmlns="http://www.w3.org/2000/svg">
<rect width="64" height="64" rx="12" fill="#0057E9"/>
<path d="M50.9604 17.6957L17.692 50.9857C16.4444 52.3381 14.2612 52.3381 13.0136 50.9857C11.6621 49.7373 11.6621 47.5527 13.0136 46.3043L46.282 13.0143C47.5296 11.6619 49.7128 11.6619 50.9604 13.0143C52.3119 14.2627 52.3119 16.4473 50.9604 17.6957ZM25.3853 18.632C25.3853 21.0247 24.0338 23.2094 22.0585 24.4577C19.9792 25.6021 17.3801 25.6021 15.4048 24.4577C13.3255 23.2094 12.078 21.0247 12.078 18.632C12.078 16.3433 13.3255 14.1586 15.4048 12.9103C17.3801 11.7659 19.9792 11.7659 22.0585 12.9103C24.0338 14.1586 25.3853 16.3433 25.3853 18.632ZM52 45.264C52 47.6567 50.6485 49.8414 48.6732 51.0897C46.5939 52.2341 43.9948 52.2341 42.0195 51.0897C39.9402 49.8414 38.6927 47.6567 38.6927 45.264C38.6927 42.9753 39.9402 40.7906 42.0195 39.5423C43.9948 38.3979 46.5939 38.3979 48.6732 39.5423C50.6485 40.7906 52 42.9753 52 45.264Z" fill="#F5F5F5"/>
</svg>
